<svg xmlns="http://www.w3.org/2000/svg" xmlns:xlink="http://www.w3.org/1999/xlink" width="1em" height="1em" viewBox="0 0 164 164">
  <defs>
    <style>
      .chart-1 {
        fill: none;
        stroke: #707070;
      }

      .chart-2 {
        clip-path: url(#clip-path);
      }

      .chart-3, .chart-4 {
        fill: #4ad991;
      }

      .chart-3 {
        opacity: 0.2;
      }
    </style>
    <clipPath id="clip-path">
      <path id="Exclusion_4" data-name="Exclusion 4" class="chart-1" d="M82,164a82.587,82.587,0,0,1-16.526-1.666A81.527,81.527,0,0,1,36.153,150,82.231,82.231,0,0,1,6.444,113.917,81.547,81.547,0,0,1,1.666,98.524a82.8,82.8,0,0,1,0-33.05A81.57,81.57,0,0,1,14,36.152,82.234,82.234,0,0,1,50.081,6.444,81.665,81.665,0,0,1,65.473,1.666a82.82,82.82,0,0,1,33.052,0A81.576,81.576,0,0,1,127.846,14a82.233,82.233,0,0,1,29.71,36.078,81.575,81.575,0,0,1,4.778,15.392,82.785,82.785,0,0,1,0,33.05A81.557,81.557,0,0,1,150,127.846a82.25,82.25,0,0,1-36.078,29.71,81.548,81.548,0,0,1-15.392,4.778A82.592,82.592,0,0,1,82,164ZM81.317,34.167A47.834,47.834,0,1,0,129.15,82,47.888,47.888,0,0,0,81.317,34.167Z" transform="translate(0 0)"/>
    </clipPath>
  </defs>
  <g id="Mask_Group_7" data-name="Mask Group 7" class="chart-2">
    <g id="Group_462" data-name="Group 462" transform="translate(-15.034 -21.183)">
      <g id="Group_461" data-name="Group 461" transform="translate(0 0)">
        <rect id="Rectangle_1522" data-name="Rectangle 1522" class="chart-3" width="97.033" height="204.999"/>
        <rect id="Rectangle_1523" data-name="Rectangle 1523" class="chart-4" width="97.033" height="204.999" transform="translate(97.033)"/>
      </g>
      <path id="Path_459" data-name="Path 459" class="chart-4" d="M7667.351,13143l-96.35,36.9v66.283h118.216Z" transform="translate(-7570.318 -13040.501)"/>
      <path id="Path_460" data-name="Path 460" class="chart-4" d="M7809.261,13163.729,7712,13143l21.867,103.184h75.394Z" transform="translate(-7614.967 -13040.501)"/>
    </g>
  </g>
</svg>
