<svg xmlns="http://www.w3.org/2000/svg" style="fill: currentColor;" viewBox="0 0 25.165 15.729"><g transform="translate(-1959.598 -1205.603)"><path    d="M1967.068,1219.889h-7.078a.414.414,0,0,1-.112-.016.392.392,0,0,1-.263-.488l1.173-3.91a.393.393,0,0,1,.383-.3h4.718a.392.392,0,0,1,.376.281l1.171,3.905a.392.392,0,0,1-.368.532Z" transform="translate(0 1.444)"/><path    d="M1970.483,1215.106H1963.4a.374.374,0,0,1-.112-.016.394.394,0,0,1-.265-.488l1.173-3.91a.4.4,0,0,1,.383-.3h4.719a.394.394,0,0,1,.376.281l1.171,3.906a.4.4,0,0,1-.368.532Z" transform="translate(0.515 0.722)"/><path    d="M1978.683,1215.106h-7.077a.381.381,0,0,1-.113-.016.392.392,0,0,1-.264-.488l1.173-3.91a.394.394,0,0,1,.383-.3h4.719a.393.393,0,0,1,.375.281l1.172,3.906a.393.393,0,0,1-.368.532Z" transform="translate(1.753 0.722)"/><path    d="M1974.584,1210.323h-7.078a.414.414,0,0,1-.112-.016.392.392,0,0,1-.263-.488l1.173-3.91a.394.394,0,0,1,.382-.305h4.719a.393.393,0,0,1,.376.281l1.172,3.905a.4.4,0,0,1,.024.139A.393.393,0,0,1,1974.584,1210.323Z" transform="translate(1.134)"/><path    d="M1974.584,1219.889h-7.078a.414.414,0,0,1-.112-.016.392.392,0,0,1-.263-.488l1.173-3.91a.393.393,0,0,1,.382-.3h4.719a.392.392,0,0,1,.376.281l1.172,3.905a.4.4,0,0,1,.024.139A.393.393,0,0,1,1974.584,1219.889Z" transform="translate(1.134 1.444)"/><path    d="M1982.1,1219.889h-7.077a.415.415,0,0,1-.112-.016.394.394,0,0,1-.265-.488l1.173-3.91a.393.393,0,0,1,.383-.3h4.719a.392.392,0,0,1,.376.281l1.17,3.905a.377.377,0,0,1,.025.139A.393.393,0,0,1,1982.1,1219.889Z" transform="translate(2.269 1.444)"/></g></svg>