<svg xmlns="http://www.w3.org/2000/svg" style="fill: currentColor;" viewBox="0 0 9.011 16.22"><path    d="M1.04,18.508a6.073,6.073,0,0,0,3.548,1.518V22.34H6.6V19.969A4.712,4.712,0,0,0,9.074,18.83a3.055,3.055,0,0,0,.977-2.371A2.764,2.764,0,0,0,8.9,14.1a8.434,8.434,0,0,0-3.045-1.3,5.185,5.185,0,0,1-1.4-.522.911.911,0,0,1-.436-.825.846.846,0,0,1,.446-.711,1.9,1.9,0,0,1,1.072-.294,5.32,5.32,0,0,1,1.613.218,6.73,6.73,0,0,1,1.5.73l.911-1.973A6.64,6.64,0,0,0,6.6,8.283V6.12H4.588V8.283A4.346,4.346,0,0,0,2.321,9.355a2.835,2.835,0,0,0-.882,2.172,3.045,3.045,0,0,0,.341,1.48,2.673,2.673,0,0,0,1.015,1.024,7.56,7.56,0,0,0,1.281.617,15.71,15.71,0,0,0,1.537.446q.569.152.911.275a1.877,1.877,0,0,1,.645.408.9.9,0,0,1,.3.683,1.169,1.169,0,0,1-.569.958,2.283,2.283,0,0,1-1.366.408,5.626,5.626,0,0,1-3.6-1.29Z" transform="translate(-1.04 -6.12)"/></svg>