<svg xmlns="http://www.w3.org/2000/svg" style="fill: currentColor;"  viewBox="0 0 16.692 16.689"><g transform="translate(-414.426 -72.617)"><path    d="M416.216,78.543l.528-.529,7.557,7.558-.528.529-7.557-7.558Z"/><path    d="M418.019,76.738l.529-.528,7.557,7.558-.528.529-7.557-7.558Z"/><path    d="M419.823,74.935l.528-.529,7.557,7.558-.528.529-7.557-7.558Z"/><path    d="M430.267,88.918l-4.995-1.34a.377.377,0,0,1-.267-.264h0a.38.38,0,0,1,.1-.362h0l3.658-3.658a.375.375,0,0,1,.362-.1h0a.378.378,0,0,1,.267.264h0l1.337,5a.376.376,0,0,1-.1.362h0a.373.373,0,0,1-.264.11h0a.412.412,0,0,1-.1-.013Zm-4.176-1.9,3.745,1-1.005-3.746-2.74,2.741Z"/><path    d="M414.8,77.088l4.1-4.1.531.529-4.1,4.1-.528-.529Z"/></g></svg>