<svg xmlns="http://www.w3.org/2000/svg" width="1em" height="1em" viewBox="0 0 19.255 17.761">
  <defs>
    <style>
      .sup-1 {
        fill: currentColor;
        stroke: currentColor;
        stroke-linecap: round;
        stroke-linejoin: round;
      }
    </style>
  </defs>
  <path id="Path_309" data-name="Path 309" class="sup-1" d="M436.221,74.766a.374.374,0,0,0-.473-.247l-3.881,1.213a.379.379,0,0,0-.222.185l-4.528,8.633a2.1,2.1,0,0,0-.813-.169,2.082,2.082,0,0,0-.64.1h0a2.151,2.151,0,0,0-1.09.783L419.487,82.6a.376.376,0,0,0-.346.668l5.1,2.676a2.312,2.312,0,0,0-.081.58,2.105,2.105,0,0,0,.1.641,2.142,2.142,0,0,0,4.184-.64,2.162,2.162,0,0,0-.1-.638,2.134,2.134,0,0,0-.588-.927l4.479-8.553,3.737-1.167A.379.379,0,0,0,436.221,74.766Zm-9.506,13.079a1.384,1.384,0,0,1-1.735-.911,1.291,1.291,0,0,1-.067-.412,1.387,1.387,0,0,1,.974-1.322l-.112-.36.117.359a1.343,1.343,0,0,1,.412-.064,1.386,1.386,0,0,1,.411,2.71ZM429.346,75.8,421.9,71.9l-.176.332-3.724,7.109,7.443,3.9Zm-10.323,3.228,3.2-6.108,6.108,3.2-3.2,6.11-2.8-1.469Z" transform="translate(-417.505 -71.4)"/>
</svg>
